# xmcd CD database file
#
# Track frame offsets:
#	150
#	16625
#	36856
#	58376
#	77642
#	99533
#	118546
#	139937
#	158442
#	176865
#
# Disc length: 2636 seconds
#
# Revision: 4
# Processed by: cddbd v1.5.1PL0 Copyright (c) Steve Scherf et al.
# Submitted via: CDex 1.51
#
DISCID=7b0a4a0a
DTITLE=平沢進 - SOLAR RAY
DYEAR=2001
DGENRE=Soundtrack
TTITLE0=ソーラ・レイ 2
TTITLE1=オーロラ 2
TTITLE2=賢者のプロペラ 3
TTITLE3=Gemini 2
TTITLE4=Sim City 2
TTITLE5=世界タービン 2
TTITLE6=庭師KING 2
TTITLE7=BERSERK-Forces 1.5
TTITLE8=ヴァーチュアル・ラビット 2
TTITLE9=広場で 2
EXTD=YEAR: 2001
EXTT0=
EXTT1=
EXTT2=
EXTT3=
EXTT4=
EXTT5=
EXTT6=
EXTT7=
EXTT8=
EXTT9=
PLAYORDER=
